<svg width="30" height="19" viewBox="0 0 30 19" fill="none" xmlns="http://www.w3.org/2000/svg">
<path d="M15.2409 13.0035C15.5336 12.1837 16.0763 11.4739 16.7944 10.9718C17.5124 10.4697 18.3704 10.2 19.25 10.2C20.1297 10.2 20.9876 10.4697 21.7057 10.9718C22.4237 11.4739 22.9665 12.1837 23.2592 13.0035H29.1667V15.8035H23.2592C22.9665 16.6232 22.4237 17.333 21.7057 17.8352C20.9876 18.3373 20.1297 18.6069 19.25 18.6069C18.3704 18.6069 17.5124 18.3373 16.7944 17.8352C16.0763 17.333 15.5336 16.6232 15.2409 15.8035H0.833374V13.0035H15.2409ZM6.74087 3.20346C7.03356 2.38371 7.57634 1.67386 8.29439 1.17176C9.01244 0.669659 9.87041 0.400024 10.75 0.400024C11.6297 0.400024 12.4876 0.669659 13.2057 1.17176C13.9237 1.67386 14.4665 2.38371 14.7592 3.20346H29.1667V6.00346H14.7592C14.4665 6.8232 13.9237 7.53305 13.2057 8.03515C12.4876 8.53725 11.6297 8.80689 10.75 8.80689C9.87041 8.80689 9.01244 8.53725 8.29439 8.03515C7.57634 7.53305 7.03356 6.8232 6.74087 6.00346H0.833374V3.20346H6.74087ZM10.75 6.00346C11.1258 6.00346 11.4861 5.85596 11.7518 5.5934C12.0175 5.33085 12.1667 4.97476 12.1667 4.60346C12.1667 4.23215 12.0175 3.87606 11.7518 3.61351C11.4861 3.35096 11.1258 3.20346 10.75 3.20346C10.3743 3.20346 10.014 3.35096 9.74831 3.61351C9.48263 3.87606 9.33337 4.23215 9.33337 4.60346C9.33337 4.97476 9.48263 5.33085 9.74831 5.5934C10.014 5.85596 10.3743 6.00346 10.75 6.00346ZM19.25 15.8035C19.6258 15.8035 19.9861 15.656 20.2518 15.3934C20.5175 15.1309 20.6667 14.7748 20.6667 14.4035C20.6667 14.0322 20.5175 13.6761 20.2518 13.4135C19.9861 13.151 19.6258 13.0035 19.25 13.0035C18.8743 13.0035 18.514 13.151 18.2483 13.4135C17.9826 13.6761 17.8334 14.0322 17.8334 14.4035C17.8334 14.7748 17.9826 15.1309 18.2483 15.3934C18.514 15.656 18.8743 15.8035 19.25 15.8035Z" fill="#583C3C"/>
</svg>
